<svg width="25" height="24" viewBox="0 0 25 24" fill="none" xmlns="http://www.w3.org/2000/svg">
<circle cx="13.3779" cy="8.30373" r="1.056" stroke="#342E34" stroke-width="1.056"/>
<path d="M12.4082 4.17969C12.9298 3.72612 13.6899 3.6977 14.2412 4.09473L14.3486 4.17969L21.1338 10.0791C21.4437 10.3486 21.6252 10.7334 21.6406 11.1387L21.6377 11.3135L21.0635 18.4551C21.0015 19.2228 20.36 19.8142 19.5898 19.8145H7.16699C6.44483 19.8143 5.83616 19.2943 5.71191 18.5967L5.69336 18.4551L5.11914 11.3135C5.08628 10.9041 5.22559 10.5025 5.49805 10.2021L5.62305 10.0791L12.4082 4.17969Z" stroke="#342E34" stroke-width="1.2672"/>
<line x1="8.30157" y1="19.8934" x2="8.30157" y2="21.9257" stroke="#342E34" stroke-width="1.2672" stroke-linecap="round"/>
<line x1="18.1063" y1="19.8934" x2="18.1063" y2="21.9257" stroke="#342E34" stroke-width="1.2672" stroke-linecap="round"/>
<path d="M15.8461 19.2622V14.7751C15.8461 13.6087 14.9005 12.6631 13.7341 12.6631H13.0554C11.8889 12.6631 10.9434 13.6087 10.9434 14.7751V19.2622" stroke="#342E34" stroke-width="1.2672"/>
</svg>
