<svg width="146" height="32" viewBox="0 0 146 32" fill="none" xmlns="http://www.w3.org/2000/svg">
<path fill-rule="evenodd" clip-rule="evenodd" d="M5.99438 8.05285C8.4244 4.78427 12.3157 2.66665 16.7015 2.66665C21.1132 2.66665 25.0242 4.80925 27.4513 8.11062C27.348 8.21686 27.2539 8.32694 27.1688 8.43689C26.7241 9.0126 26.3897 9.75418 26.1217 10.5072C25.5821 12.0218 25.1704 14.0001 24.7893 15.8527L24.7554 16.0193C24.3751 17.8684 24.0217 19.5882 23.5943 20.8648C23.4023 21.4383 23.2202 21.8438 23.0588 22.1035C22.8903 21.8418 22.6992 21.4313 22.4968 20.8495C22.0398 19.5363 21.6553 17.75 21.2478 15.8426L21.2346 15.7802C20.843 13.9481 20.4276 12.0042 19.9096 10.5163C19.6494 9.76884 19.3301 9.03469 18.9125 8.46431C18.5027 7.90454 17.8205 7.27279 16.8228 7.27279C15.8313 7.27279 15.1459 7.89768 14.7302 8.45118C14.3045 9.01785 13.9727 9.74897 13.6993 10.4968C13.1488 12.0027 12.6986 13.9725 12.2798 15.8276L12.2365 16.0193C11.8217 17.8569 11.4339 19.575 10.9938 20.8541C10.8257 21.3426 10.6672 21.7142 10.5236 21.9797C10.3834 21.7154 10.2288 21.3463 10.0653 20.8619C9.64304 19.6101 9.27312 17.9401 8.87583 16.1465L8.80629 15.8326C8.39463 13.9764 7.94803 12.003 7.38966 10.4924C7.11223 9.74175 6.77291 9.00699 6.33378 8.43764C6.23436 8.30877 6.12135 8.17796 5.99438 8.05285ZM4.52366 10.5626C4.6394 10.7911 4.76182 11.0744 4.88842 11.4169C5.37172 12.7244 5.7812 14.5086 6.20285 16.41L6.2849 16.7804C6.66882 18.5153 7.06818 20.32 7.53856 21.7142C7.78873 22.4557 8.09085 23.182 8.47944 23.7465C8.84688 24.2804 9.50608 24.9699 10.5197 24.9699C11.5304 24.9699 12.1912 24.2837 12.5612 23.7523C12.953 23.1891 13.2601 22.4636 13.5154 21.7216C14.0047 20.2998 14.4212 18.4528 14.8199 16.6853L14.8809 16.415C15.3105 14.5125 15.724 12.7247 16.2038 11.4124C16.4261 10.8044 16.6342 10.3809 16.8153 10.1181C16.9871 10.3786 17.1832 10.7954 17.3912 11.393C17.8484 12.7063 18.2325 14.4926 18.6401 16.3999L18.6534 16.4624C19.0449 18.2945 19.4603 20.2384 19.9783 21.7261C20.2385 22.4739 20.5578 23.208 20.9754 23.7783C21.3853 24.3382 22.0674 24.9699 23.065 24.9699C24.0679 24.9699 24.7476 24.3324 25.1526 23.7675C25.5639 23.1944 25.8731 22.4578 26.123 21.7113C26.6032 20.2774 26.9851 18.4168 27.3489 16.6469L27.4013 16.3899C27.7931 14.4849 28.1693 12.7056 28.6338 11.402C28.7346 11.1184 28.8337 10.8766 28.9282 10.6735C29.6401 12.3049 30.0348 14.1064 30.0348 16C30.0348 23.3637 24.0655 29.3335 16.7015 29.3335C9.33774 29.3335 3.36819 23.3637 3.36819 16C3.36819 14.0634 3.78109 12.2231 4.52366 10.5626ZM16.7015 0C7.865 0 0.701538 7.16346 0.701538 16C0.701538 24.8365 7.865 32 16.7015 32C25.5383 32 32.7013 24.8365 32.7013 16C32.7013 7.16346 25.5383 0 16.7015 0ZM17.0044 9.89659C17.0057 9.89564 17.0063 9.89506 17.0063 9.8949C17.0063 9.89457 17.0032 9.89638 16.997 9.90134C17.0004 9.89935 17.0029 9.89774 17.0044 9.89659ZM16.6378 9.89671C16.6316 9.89291 16.6285 9.89031 16.6285 9.88998C16.6285 9.88965 16.6316 9.89155 16.6378 9.89671ZM22.8623 22.3566C22.8623 22.3566 22.8651 22.3538 22.8709 22.35C22.8651 22.355 22.8623 22.3571 22.8623 22.3566ZM23.25 22.3459C23.2562 22.3496 23.2595 22.3521 23.2595 22.3525C23.2595 22.3529 23.2562 22.3509 23.25 22.3459ZM10.2465 22.3806C10.2464 22.3802 10.2503 22.3765 10.2579 22.3711C10.2503 22.3781 10.2465 22.381 10.2465 22.3806ZM10.7865 22.3736C10.7941 22.3789 10.7979 22.3827 10.7979 22.3831C10.7979 22.3835 10.794 22.381 10.7865 22.3736Z" fill="#FF8F50"/>
<path d="M41.5362 25.4724L37.6562 12.2004H41.0548L43.3559 21.753L46.0315 12.2004H49.831L52.5071 21.753L54.835 12.2004H58.2332L54.3267 25.4724H50.7679L47.9313 15.5452L45.095 25.4724H41.5362Z" fill="white"/>
<path d="M63.2199 25.7936C62.0782 25.7936 61.1417 25.6148 60.4105 25.2581C59.6792 24.8836 59.135 24.393 58.7783 23.7865C58.4215 23.1799 58.2432 22.511 58.2432 21.7798C58.2432 20.5489 58.7246 19.5499 59.6879 18.7828C60.6512 18.0158 62.0964 17.6322 64.023 17.6322H67.3943V17.3111C67.3943 16.4014 67.1354 15.7324 66.6185 15.3043C66.1011 14.8761 65.4586 14.6621 64.6919 14.6621C63.9961 14.6621 63.3896 14.8316 62.8722 15.1705C62.3549 15.4916 62.0336 15.9732 61.9089 16.6154H58.564C58.6536 15.6522 58.9744 14.8137 59.5273 14.1002C60.0983 13.3866 60.8296 12.8426 61.7215 12.468C62.6137 12.0755 63.6126 11.8793 64.7183 11.8793C66.6094 11.8793 68.0988 12.352 69.1872 13.2975C70.2752 14.2429 70.8194 15.5808 70.8194 17.3111V25.4724H67.9026L67.5818 23.3319C67.1891 24.0454 66.6362 24.6337 65.9228 25.0979C65.227 25.5615 64.3261 25.7936 63.2199 25.7936ZM63.9961 23.1176C64.9772 23.1176 65.7353 22.7963 66.2704 22.1543C66.8233 21.5122 67.1714 20.7182 67.3142 19.7728H64.3975C63.4874 19.7728 62.8367 19.9423 62.444 20.2813C62.0518 20.6024 61.8552 21.0039 61.8552 21.4854C61.8552 22.0027 62.0518 22.4041 62.444 22.6894C62.8367 22.9747 63.3537 23.1176 63.9961 23.1176Z" fill="white"/>
<path d="M76.211 25.4724L71.3412 12.2004H74.9264L78.2982 22.2348L81.6696 12.2004H85.2552L80.3586 25.4724H76.211Z" fill="white"/>
<path d="M92.1404 25.7936C90.8026 25.7936 89.6163 25.5079 88.5816 24.9372C87.5473 24.3662 86.7355 23.5635 86.1467 22.5288C85.5579 21.4944 85.2639 20.2991 85.2639 18.9434C85.2639 17.5698 85.5492 16.3479 86.1199 15.2775C86.7087 14.2072 87.5113 13.3777 88.5283 12.789C89.5626 12.1825 90.7758 11.8793 92.1672 11.8793C93.4695 11.8793 94.6203 12.1647 95.6191 12.7355C96.6179 13.3064 97.3942 14.0913 97.9471 15.0902C98.5177 16.0713 98.8034 17.1684 98.8034 18.3814C98.8034 18.5777 98.7943 18.7828 98.7766 18.9969C98.7766 19.211 98.7675 19.4339 98.7497 19.6658H88.6621C88.7335 20.7004 89.0903 21.5122 89.7324 22.101C90.3922 22.6894 91.1862 22.9838 92.114 22.9838C92.8093 22.9838 93.3894 22.8323 93.8531 22.5288C94.3346 22.2079 94.6913 21.7975 94.9234 21.2979H98.4021C98.1523 22.1365 97.7328 22.9037 97.1444 23.5994C96.5733 24.277 95.8598 24.8121 95.0035 25.2048C94.1653 25.5971 93.2107 25.7936 92.1404 25.7936ZM92.1672 14.6621C91.329 14.6621 90.5887 14.9029 89.9462 15.3846C89.3042 15.8484 88.8937 16.5619 88.7154 17.5252H95.3247C95.271 16.6511 94.9502 15.9554 94.3614 15.4381C93.7726 14.9208 93.0414 14.6621 92.1672 14.6621Z" fill="white"/>
<path d="M100.614 25.4724V6.20663H104.039V25.4724H100.614Z" fill="white"/>
<path d="M112.916 25.7936C111.579 25.7936 110.392 25.5079 109.358 24.9372C108.323 24.3662 107.512 23.5635 106.923 22.5288C106.334 21.4944 106.04 20.2991 106.04 18.9434C106.04 17.5698 106.325 16.3479 106.896 15.2775C107.485 14.2072 108.287 13.3777 109.304 12.789C110.339 12.1825 111.552 11.8793 112.943 11.8793C114.246 11.8793 115.396 12.1647 116.395 12.7355C117.394 13.3064 118.17 14.0913 118.723 15.0902C119.294 16.0713 119.579 17.1684 119.579 18.3814C119.579 18.5777 119.57 18.7828 119.553 18.9969C119.553 19.211 119.544 19.4339 119.526 19.6658H109.438C109.51 20.7004 109.866 21.5122 110.508 22.101C111.168 22.6894 111.962 22.9838 112.89 22.9838C113.585 22.9838 114.166 22.8323 114.629 22.5288C115.111 22.2079 115.467 21.7975 115.699 21.2979H119.178C118.928 22.1365 118.509 22.9037 117.92 23.5994C117.349 24.277 116.636 24.8121 115.78 25.2048C114.941 25.5971 113.987 25.7936 112.916 25.7936ZM112.943 14.6621C112.105 14.6621 111.365 14.9029 110.722 15.3846C110.08 15.8484 109.67 16.5619 109.491 17.5252H116.101C116.047 16.6511 115.726 15.9554 115.137 15.4381C114.549 14.9208 113.817 14.6621 112.943 14.6621Z" fill="white"/>
<path d="M126.875 25.7936C125.698 25.7936 124.663 25.6061 123.771 25.2316C122.879 24.839 122.166 24.3038 121.63 23.6259C121.095 22.9483 120.774 22.1634 120.667 21.2715H124.119C124.226 21.7884 124.512 22.2348 124.975 22.6093C125.457 22.966 126.072 23.1444 126.821 23.1444C127.571 23.1444 128.115 22.9929 128.454 22.6894C128.81 22.3863 128.989 22.0382 128.989 21.646C128.989 21.0749 128.739 20.6914 128.24 20.4953C127.74 20.2813 127.044 20.0761 126.153 19.8799C125.582 19.755 125.002 19.6034 124.413 19.425C123.825 19.2466 123.281 19.0236 122.781 18.7561C122.299 18.4706 121.907 18.1139 121.604 17.6857C121.3 17.2398 121.149 16.6957 121.149 16.0535C121.149 14.8761 121.613 13.8861 122.54 13.0834C123.486 12.2806 124.806 11.8793 126.501 11.8793C128.07 11.8793 129.319 12.245 130.246 12.9763C131.192 13.7078 131.754 14.7156 131.932 16H128.695C128.498 15.0189 127.758 14.5283 126.474 14.5283C125.832 14.5283 125.332 14.6532 124.975 14.9029C124.636 15.1527 124.467 15.4648 124.467 15.8394C124.467 16.2319 124.726 16.5441 125.243 16.776C125.76 17.0079 126.447 17.2219 127.303 17.4182C128.231 17.6322 129.078 17.873 129.845 18.1406C130.63 18.3904 131.254 18.7739 131.718 19.2912C132.182 19.7907 132.414 20.5132 132.414 21.4585C132.432 22.2794 132.218 23.0193 131.772 23.6795C131.326 24.3394 130.684 24.8567 129.845 25.2316C129.007 25.6061 128.017 25.7936 126.875 25.7936Z" fill="white"/>
<path d="M139.863 25.7936C138.686 25.7936 137.651 25.6061 136.759 25.2316C135.867 24.839 135.154 24.3038 134.619 23.6259C134.084 22.9483 133.762 22.1634 133.655 21.2715H137.107C137.214 21.7884 137.499 22.2348 137.963 22.6093C138.445 22.966 139.06 23.1444 139.81 23.1444C140.559 23.1444 141.103 22.9929 141.442 22.6894C141.799 22.3863 141.977 22.0382 141.977 21.646C141.977 21.0749 141.727 20.6914 141.228 20.4953C140.728 20.2813 140.033 20.0761 139.141 19.8799C138.57 19.755 137.99 19.6034 137.401 19.425C136.813 19.2466 136.269 19.0236 135.769 18.7561C135.288 18.4706 134.895 18.1139 134.592 17.6857C134.288 17.2398 134.137 16.6957 134.137 16.0535C134.137 14.8761 134.601 13.8861 135.528 13.0834C136.474 12.2806 137.794 11.8793 139.488 11.8793C141.058 11.8793 142.307 12.245 143.235 12.9763C144.18 13.7078 144.742 14.7156 144.92 16H141.683C141.486 15.0189 140.746 14.5283 139.462 14.5283C138.82 14.5283 138.32 14.6532 137.963 14.9029C137.624 15.1527 137.455 15.4648 137.455 15.8394C137.455 16.2319 137.713 16.5441 138.231 16.776C138.748 17.0079 139.435 17.2219 140.291 17.4182C141.219 17.6322 142.066 17.873 142.833 18.1406C143.618 18.3904 144.243 18.7739 144.706 19.2912C145.17 19.7907 145.402 20.5132 145.402 21.4585C145.42 22.2794 145.206 23.0193 144.76 23.6795C144.314 24.3394 143.672 24.8567 142.833 25.2316C141.995 25.6061 141.005 25.7936 139.863 25.7936Z" fill="white"/>
</svg>
